#!OML:ASF H:\Dans Jumps\Project 1\Capture day 1\Session 1\subject.ASF
:FULLY-SPECIFIED
:DEGREES
153
root 0.519544 17.5459 -13.8188 5.6308 -1.02237 -1.68223
lowerback -1.14277 -0.29634 0.566869
upperback 3.98537 -0.486874 1.67745
thorax 4.76191 -0.256525 1.3899
lowerneck -16.0579 0.648221 -2.21851
upperneck 26.6565 1.57046 -0.0386361
head 11.2971 0.477432 0.587959
rclavicle -1.93815e-015 -6.36111e-015
rhumerus -18.5999 -10.439 -84.8014
rradius 24.1062
rwrist 32.3907
rhand -19.4017 -26.2601
rfingers 7.12502
rthumb 6.9174 -56.1271
lclavicle -1.93815e-015 -6.36111e-015
lhumerus -17.2925 -8.15446 91.4073
lradius 19.6186
lwrist 4.19787
lhand -24.9507 -4.29538
lfingers 7.12502
lthumb 1.5592 25.6787
rfemur -10.903 -3.675 20.0573
rtibia 19.987
rfoot -14.0228 -1.73529
rtoes 7.3512
lfemur -9.97151 8.46297 -18.4147
ltibia 17.3958
lfoot -11.9085 1.59636
ltoes -8.02181
154
root 0.519549 17.5459 -13.8199 5.63408 -1.02426 -1.67928
lowerback -1.12883 -0.29541 0.567219
upperback 3.98839 -0.485478 1.67763
thorax 4.75709 -0.255826 1.39001
lowerneck -16.0568 0.647634 -2.22319
upperneck 26.6464 1.57001 -0.0359536
head 11.293 0.477231 0.589604
rclavicle 2.03754e-015 2.18663e-015
rhumerus -18.5937 -10.4398 -84.8016
rradius 24.1031
rwrist 32.3844
rhand -19.3991 -26.2587
rfingers 7.12502
rthumb 6.91993 -56.1256
lclavicle 2.03754e-015 2.18663e-015
lhumerus -17.2894 -8.14467 91.3953
lradius 19.6226
lwrist 4.19257
lhand -24.9542 -4.30355
lfingers 7.12502
lthumb 1.55582 25.6705
rfemur -10.9116 -3.6689 20.0527
rtibia 19.9941
rfoot -14.0286 -1.72839
rtoes 7.40773
lfemur -9.98324 8.46561 -18.4188
ltibia 17.4054
lfoot -11.9109 1.59203
ltoes -7.99666
155
root 0.519551 17.5459 -13.821 5.6396 -1.02662 -1.67825
lowerback -1.11773 -0.293829 0.571222
upperback 3.99215 -0.483375 1.67711
thorax 4.75461 -0.254624 1.38739
lowerneck -16.057 0.647793 -2.22521
upperneck 26.6352 1.57003 -0.0337642
head 11.2888 0.477458 0.590683
rclavicle 1.83876e-015 -4.37326e-015
rhumerus -18.5858 -10.4451 -84.8032
rradius 24.0993
rwrist 32.3826
rhand -19.3947 -26.2562
rfingers 7.12502
rthumb 6.92418 -56.123
lclavicle 1.83876e-015 -4.37326e-015
lhumerus -17.2815 -8.1309 91.3807
lradius 19.6194
lwrist 4.18281
lhand -24.9579 -4.32623
lfingers 7.12502
lthumb 1.55225 25.6479
rfemur -10.9227 -3.66119 20.0503
rtibia 20.0008
rfoot -14.0324 -1.72189
rtoes 7.46984
lfemur -9.99847 8.46745 -18.4212
ltibia 17.4164
lfoot -11.912 1.58849
ltoes -7.97053
156
root 0.519581 17.5459 -13.8223 5.64811 -1.02792 -1.67977
lowerback -1.10923 -0.291985 0.579544
upperback 3.99662 -0.481124 1.67646
thorax 4.75432 -0.253184 1.3822
lowerneck -16.0645 0.649267 -2.22168
upperneck 26.6265 1.57166 -0.0353173
head 11.287 0.478451 0.589743
rclavicle 3.67752e-015 -5.96354e-016
rhumerus -18.5753 -10.4553 -84.8055
rradius 24.0936
rwrist 32.3866
rhand -19.3973 -26.2509
rfingers 7.12502
rthumb 6.92159 -56.1178
lclavicle 3.67752e-015 -5.96354e-016
lhumerus -17.2696 -8.11628 91.3645
lradius 19.613
lwrist 4.17345
lhand -24.9521 -4.33345
lfingers 7.12502
lthumb 1.55782 25.6406
rfemur -10.9384 -3.65388 20.0513
rtibia 20.0077
rfoot -14.0328 -1.71856
rtoes 7.51843
lfemur -10.0189 8.46699 -18.4214
ltibia 17.4294
lfoot -11.9113 1.58684
ltoes -7.95742
157
root 0.51963 17.5459 -13.8237 5.65854 -1.0285 -1.68187
lowerback -1.1019 -0.289715 0.590223
upperback 4.00064 -0.478358 1.67483
thorax 4.75419 -0.251375 1.37471
lowerneck -16.0701 0.65058 -2.21683
upperneck 26.616 1.57246 -0.0363493
head 11.2842 0.479296 0.588626
rclavicle 3.8266e-015 1.86858e-014
rhumerus -18.5674 -10.4635 -84.8094
rradius 24.0922
rwrist 32.3868
rhand -19.3963 -26.2549
rfingers 7.12502
rthumb 6.92259 -56.1218
lclavicle 3.8266e-015 1.86858e-014
lhumerus -17.2577 -8.10242 91.3471
lradius 19.6058
lwrist 4.16198
lhand -24.9417 -4.32476
lfingers 7.12502
lthumb 1.56784 25.6492
rfemur -10.9598 -3.65058 20.0545
rtibia 20.0147
rfoot -14.0279 -1.72238
rtoes 7.50423
lfemur -10.0435 8.46418 -18.4213
ltibia 17.445
lfoot -11.9099 1.58802
ltoes -7.95583
158
root 0.519749 17.5458 -13.8251 5.67012 -1.03024 -1.68444
lowerback -1.0957 -0.286998 0.602935
upperback 4.00457 -0.47506 1.67261
thorax 4.75457 -0.249211 1.36548
lowerneck -16.0749 0.651934 -2.20924
upperneck 26.6058 1.57311 -0.0395238
head 11.2813 0.480085 0.586236
rclavicle 9.93923e-017 1.23246e-014
rhumerus -18.5614 -10.4719 -84.8142
rradius 24.0934
rwrist 32.3875
rhand -19.4015 -26.2538
rfingers 7.12502
rthumb 6.91761 -56.1207
lclavicle 9.93923e-017 1.23246e-014
lhumerus -17.2466 -8.09389 91.3297
lradius 19.599
lwrist 4.15656
lhand -24.9312 -4.3087
lfingers 7.12502
lthumb 1.57798 25.6652
rfemur -10.9844 -3.64778 20.0587
rtibia 20.0224
rfoot -14.0211 -1.72882
rtoes 7.46607
lfemur -10.071 8.45944 -18.4213
ltibia 17.4625
lfoot -11.9074 1.59424
ltoes -7.96923
159
root 0.519846 17.5457 -13.8266 5.68193 -1.0312 -1.68718
lowerback -1.08775 -0.284411 0.615147
upperback 4.00736 -0.471899 1.67124
thorax 4.75278 -0.247148 1.35742
lowerneck -16.0747 0.652226 -2.20363
upperneck 26.5935 1.57251 -0.0422251
head 11.2766 0.480208 0.584133
rclavicle -2.68359e-015 2.28602e-014
rhumerus -18.5579 -10.475 -84.8183
rradius 24.0974
rwrist 32.3801
rhand -19.4028 -26.2589
rfingers 7.12502
rthumb 6.9163 -56.1259
lclavicle -2.68359e-015 2.28602e-014
lhumerus -17.2393 -8.08412 91.3145
lradius 19.5938
lwrist 4.14847
lhand -24.9291 -4.29259
lfingers 7.12502
lthumb 1.58007 25.6813
rfemur -11.012 -3.64686 20.0642
rtibia 20.031
rfoot -14.0117 -1.74075
rtoes 7.39277
lfemur -10.1 8.4544 -18.421
ltibia 17.4817
lfoot -11.905 1.60028
ltoes -7.98101
160
root 0.520007 17.5456 -13.8281 5.69219 -1.03556 -1.68787
lowerback -1.0782 -0.280948 0.625576
upperback 4.01051 -0.467466 1.66946
thorax 4.75044 -0.244513 1.35
lowerneck -16.0762 0.653297 -2.19578
upperneck 26.5841 1.57341 -0.04818
head 11.2735 0.480781 0.580706
rclavicle -4.87022e-015 -4.77083e-015
rhumerus -18.5546 -10.4775 -84.822
rradius 24.1024
rwrist 32.3711
rhand -19.4035 -26.2666
rfingers 7.12502
rthumb 6.91562 -56.1336
lclavicle -4.87022e-015 -4.77083e-015
lhumerus -17.2334 -8.07579 91.3007
lradius 19.5884
lwrist 4.14243
lhand -24.929 -4.28064
lfingers 7.12502
lthumb 1.5801 25.6933
rfemur -11.0391 -3.64545 20.067
rtibia 20.041
rfoot -14.0041 -1.74946
rtoes 7.32353
lfemur -10.1267 8.44741 -18.4232
ltibia 17.5012
lfoot -11.9037 1.61029
ltoes -7.9843
161
root 0.520091 17.5454 -13.8296 5.70114 -1.04061 -1.68948
lowerback -1.06588 -0.277887 0.634936
upperback 4.01421 -0.463559 1.6692
thorax 4.74714 -0.242215 1.34472
lowerneck -16.0748 0.654383 -2.19152
upperneck 26.5728 1.57481 -0.0526517
head 11.269 0.481438 0.578468
rclavicle 9.74045e-015 -7.95139e-015
rhumerus -18.5504 -10.4756 -84.8252
rradius 24.1092
rwrist 32.3578
rhand -19.4022 -26.2721
rfingers 7.12502
rthumb 6.91693 -56.1391
lclavicle 9.74045e-015 -7.95139e-015
lhumerus -17.2289 -8.06421 91.2885
lradius 19.5861
lwrist 4.13507
lhand -24.9392 -4.28393
lfingers 7.12502
lthumb 1.57027 25.69
rfemur -11.0648 -3.63899 20.0709
rtibia 20.0521
rfoot -13.9973 -1.76149
rtoes 7.2614
lfemur -10.152 8.44065 -18.4237
ltibia 17.5207
lfoot -11.9015 1.61888
ltoes -7.974
162
root 0.520176 17.5453 -13.8312 5.70944 -1.04499 -1.68891
lowerback -1.05162 -0.276028 0.640399
upperback 4.01739 -0.461131 1.67036
thorax 4.74226 -0.240829 1.34304
lowerneck -16.0743 0.65664 -2.18948
upperneck 26.5645 1.57884 -0.0579869
head 11.2658 0.482904 0.576692
rclavicle 8.64713e-015 -1.19271e-014
rhumerus -18.547 -10.4674 -84.8264
rradius 24.1169
rwrist 32.3413
rhand -19.395 -26.2824
rfingers 7.12502
rthumb 6.92391 -56.1492
lclavicle 8.64713e-015 -1.19271e-014
lhumerus -17.2233 -8.04498 91.2787
lradius 19.5809
lwrist 4.12473
lhand -24.949 -4.29671
lfingers 7.12502
lthumb 1.56079 25.6773
rfemur -11.0894 -3.63314 20.0719
rtibia 20.065
rfoot -13.9939 -1.76924
rtoes 7.22406
lfemur -10.176 8.43627 -18.4267
ltibia 17.5384
lfoot -11.9 1.62305
ltoes -7.96143
163
root 0.520234 17.5453 -13.8328 5.71697 -1.0493 -1.68668
lowerback -1.03653 -0.273996 0.64429
upperback 4.02116 -0.458392 1.67101
thorax 4.73752 -0.23934 1.34173
lowerneck -16.0702 0.660191 -2.18384
upperneck 26.5541 1.58389 -0.0646034
head 11.2611 0.485078 0.573944
rclavicle 1.39149e-015 -9.54166e-015
rhumerus -18.5441 -10.4593 -84.8276
rradius 24.1272
rwrist 32.324
rhand -19.3878 -26.2918
rfingers 7.12502
rthumb 6.93082 -56.1584
lclavicle 1.39149e-015 -9.54166e-015
lhumerus -17.2153 -8.02301 91.2691
lradius 19.5729
lwrist 4.10925
lhand -24.96 -4.32259
lfingers 7.12502
lthumb 1.55023 25.6515
rfemur -11.1129 -3.62689 20.0708
rtibia 20.0793
rfoot -13.9924 -1.77545
rtoes 7.19829
lfemur -10.1985 8.435 -18.4315
ltibia 17.5552
lfoot -11.9009 1.62302
ltoes -7.94423
164
root 0.520296 17.5452 -13.8345 5.72388 -1.05073 -1.68344
lowerback -1.0206 -0.272883 0.648078
upperback 4.02546 -0.456848 1.67114
thorax 4.73288 -0.238438 1.33987
lowerneck -16.0697 0.663854 -2.17841
upperneck 26.5465 1.5891 -0.070465
head 11.2581 0.487347 0.571572
rclavicle -4.02539e-015 5.1684e-015
rhumerus -18.5403 -10.457 -84.8284
rradius 24.1351
rwrist 32.3151
rhand -19.3883 -26.2918
rfingers 7.12502
rthumb 6.9303 -56.1583
lclavicle -4.02539e-015 5.1684e-015
lhumerus -17.2064 -8.00016 91.2595
lradius 19.5644
lwrist 4.09121
lhand -24.9692 -4.3527
lfingers 7.12502
lthumb 1.54133 25.6215
rfemur -11.1344 -3.62086 20.0681
rtibia 20.095
rfoot -13.994 -1.78108
rtoes 7.19012
lfemur -10.2201 8.43744 -18.4374
ltibia 17.5703
lfoot -11.9036 1.61729
ltoes -7.94058
165
root 0.520347 17.545 -13.8363 5.73121 -1.0512 -1.68051
lowerback -1.0044 -0.271067 0.652737
upperback 4.02963 -0.454361 1.67068
thorax 4.72792 -0.23702 1.33696
lowerneck -16.0704 0.666399 -2.17278
upperneck 26.5402 1.59206 -0.0740302
head 11.2559 0.488891 0.569701
rclavicle -4.37326e-015 -2.06736e-014
rhumerus -18.5393 -10.4559 -84.8293
rradius 24.1475
rwrist 32.3017
rhand -19.3933 -26.2921
rfingers 7.12502
rthumb 6.92547 -56.1588
lclavicle -4.37326e-015 -2.06736e-014
lhumerus -17.1961 -7.97773 91.2504
lradius 19.5537
lwrist 4.06843
lhand -24.9752 -4.37447
lfingers 7.12502
lthumb 1.53556 25.5997
rfemur -11.1568 -3.61496 20.0658
rtibia 20.1114
rfoot -13.9954 -1.78755
rtoes 7.17815
lfemur -10.2419 8.44124 -18.4432
ltibia 17.5843
lfoot -11.907 1.6109
ltoes -7.94776
